<?xml version="1.0" encoding="utf-8"?>
<!-- Generator: Adobe Illustrator 16.0.0, SVG Export Plug-In . SVG Version: 6.00 Build 0)  -->
<!DOCTYPE svg PUBLIC "-//W3C//DTD SVG 1.1//EN" "http://www.w3.org/Graphics/SVG/1.1/DTD/svg11.dtd">
<svg version="1.1" id="Capa_1" xmlns="http://www.w3.org/2000/svg" xmlns:xlink="http://www.w3.org/1999/xlink" x="0px" y="0px"
	 width="100px" height="100px" viewBox="0 0 100 100" enable-background="new 0 0 100 100" xml:space="preserve">
<g>
	<path fill="#181616" d="M49.993,3.74C23.462,3.74,1.95,25.252,1.95,51.788c0,21.229,13.763,39.238,32.859,45.591
		c2.404,0.44,3.16-0.985,3.16-2.258c0-1.142,0.024-4.33,0-8.343c-13.363,2.907-16.132-6.326-16.132-6.326
		c-2.184-5.553-5.331-7.028-5.331-7.028c-4.362-2.98,0.327-2.925,0.327-2.925c4.82,0.341,7.362,4.955,7.362,4.955
		c4.285,7.336,11.243,5.218,13.978,3.991c0.438-3.105,1.682-5.224,3.055-6.423c-10.668-1.215-21.884-5.336-21.884-23.748
		c0-5.248,1.871-9.535,4.944-12.892c-0.496-1.214-2.147-6.101,0.472-12.718c0,0,4.033-1.291,13.209,4.929
		c3.833-1.066,7.945-1.597,12.029-1.616c4.08,0.019,8.192,0.55,12.029,1.616c9.175-6.217,13.205-4.929,13.205-4.929
		c2.616,6.617,0.968,11.504,0.476,12.718c3.073,3.357,4.939,7.644,4.939,12.892c0,18.461-11.234,22.521-21.94,23.706
		c1.725,1.487,3.291,4.371,3.291,8.853c0,6.008,0,11.722,0,13.3c0,1.284,0.774,2.707,3.215,2.24
		c19.077-6.364,32.828-24.362,32.828-45.585C98.042,25.252,76.53,3.74,49.993,3.74z"/>
	<g>
	</g>
	<g>
	</g>
	<g>
	</g>
	<g>
	</g>
	<g>
	</g>
	<g>
	</g>
</g>
</svg>
