<?xml version="1.0" encoding="utf-8"?>
<!-- Generator: Adobe Illustrator 16.0.0, SVG Export Plug-In . SVG Version: 6.00 Build 0)  -->
<!DOCTYPE svg PUBLIC "-//W3C//DTD SVG 1.1//EN" "http://www.w3.org/Graphics/SVG/1.1/DTD/svg11.dtd">
<svg version="1.1" id="Capa_1" xmlns="http://www.w3.org/2000/svg" xmlns:xlink="http://www.w3.org/1999/xlink" x="0px" y="0px"
	 width="100px" height="100px" viewBox="0 0 100 100" enable-background="new 0 0 100 100" xml:space="preserve">
<g>
	<title></title>
	<path fill="#010202" d="M50.06,38.744c-6.266,0-11.346,5.08-11.346,11.346c0,6.266,5.08,11.346,11.346,11.346
		s11.346-5.08,11.346-11.346C61.398,43.827,56.323,38.751,50.06,38.744z"/>
	<path fill="#010202" d="M63.408,21.188H36.712c-8.586,0.01-15.544,6.968-15.554,15.554v26.696
		c0.01,8.586,6.968,15.545,15.554,15.555h26.696c8.586-0.01,15.544-6.969,15.554-15.555V36.742
		C78.952,28.156,71.994,21.198,63.408,21.188z M50.06,67.43c-9.577,0-17.34-7.764-17.34-17.34c0-9.577,7.763-17.34,17.34-17.34
		S67.4,40.513,67.4,50.09C67.389,59.662,59.633,67.419,50.06,67.43z M69.114,35.378c-2.365,0-4.282-1.917-4.282-4.282
		c0-2.365,1.917-4.282,4.282-4.282c2.362,0,4.278,1.914,4.282,4.276c0.004,2.365-1.91,4.286-4.274,4.29c-0.003,0-0.005,0-0.008,0
		V35.378z"/>
	<path fill="#010202" d="M97.03,25.038c-0.006-1.697-0.161-3.389-0.464-5.058c-0.389-2.038-0.935-4.024-1.91-5.866
		c-1.017-1.94-2.34-3.705-3.918-5.224c-2.385-2.334-5.33-4.015-8.553-4.88c-2.965-0.8-6-0.968-9.041-0.964
		C73.134,3.032,73.128,3.017,73.126,3H26.978c0,0.016,0,0.032,0,0.046c-1.73,0.032-3.464,0.018-5.184,0.232
		c-1.886,0.199-3.743,0.616-5.534,1.24c-2.786,1.027-5.299,2.677-7.35,4.824c-2.351,2.389-4.044,5.345-4.914,8.582
		c-0.788,2.944-0.96,5.946-0.964,8.97L3,73.229l0,0c0.056,2.09,0.074,4.199,0.426,6.271c0.374,2.199,0.908,4.342,1.928,6.338
		c1.356,2.674,3.29,5.015,5.66,6.852c1.692,1.35,3.608,2.389,5.662,3.07c3.024,0.977,6.144,1.35,9.31,1.368
		c1.976,0.012,3.948,0.062,5.924,0.054c14.348-0.06,28.697,0.104,43.046-0.088c1.896-0.041,3.784-0.242,5.646-0.6
		c3.521-0.621,6.799-2.216,9.459-4.604c3.155-2.815,5.285-6.26,6.248-10.418c0.629-2.718,0.785-5.476,0.813-8.241v-0.553
		C97.12,72.462,97.038,25.658,97.03,25.038z M84.954,63.438c-0.015,11.895-9.652,21.533-21.546,21.549H36.712
		c-11.895-0.015-21.534-9.654-21.548-21.549V36.742c0.014-11.895,9.653-21.534,21.548-21.548h26.696
		c11.895,0.014,21.533,9.653,21.548,21.548L84.954,63.438z"/>
</g>
</svg>
