<?xml version="1.0" encoding="utf-8"?>
<!-- Generator: Adobe Illustrator 16.0.0, SVG Export Plug-In . SVG Version: 6.00 Build 0)  -->
<!DOCTYPE svg PUBLIC "-//W3C//DTD SVG 1.1//EN" "http://www.w3.org/Graphics/SVG/1.1/DTD/svg11.dtd">
<svg version="1.1" id="Capa_1" xmlns="http://www.w3.org/2000/svg" xmlns:xlink="http://www.w3.org/1999/xlink" x="0px" y="0px"
	 width="100px" height="100px" viewBox="0 0 100 100" enable-background="new 0 0 100 100" xml:space="preserve">
<g>
	<path fill="#010202" d="M6.061,34.94h19.323v58.15H6.061V34.94z M15.852,6.909c-6.614,0-10.935,4.342-10.935,10.041
		C4.917,22.532,9.112,27,15.599,27h0.124c6.74,0,10.937-4.469,10.937-10.05C26.533,11.251,22.462,6.909,15.852,6.909z
		 M72.828,33.574c-10.258,0-14.852,5.642-17.416,9.599V34.94H36.083c0.256,5.455,0,58.15,0,58.15h19.329V60.615
		c0-1.738,0.127-3.472,0.635-4.718c1.4-3.472,4.58-7.068,9.914-7.068c7,0,9.795,5.335,9.795,13.149v31.112h19.326V59.746
		C95.082,41.885,85.549,33.574,72.828,33.574z"/>
</g>
</svg>
