<?xml version="1.0" encoding="utf-8"?>
<!-- Generator: Adobe Illustrator 16.0.0, SVG Export Plug-In . SVG Version: 6.00 Build 0)  -->
<!DOCTYPE svg PUBLIC "-//W3C//DTD SVG 1.1//EN" "http://www.w3.org/Graphics/SVG/1.1/DTD/svg11.dtd">
<svg version="1.1" id="Capa_1" xmlns="http://www.w3.org/2000/svg" xmlns:xlink="http://www.w3.org/1999/xlink" x="0px" y="0px"
	 width="300px" height="85px" viewBox="0 0 300 85" enable-background="new 0 0 300 85" xml:space="preserve">
<g id="Capa_1_1_">
	<g>
		<path fill="#4686A8" d="M10.204,72.634c1.96-0.231,3.829-1.133,5.604-2.7c1.776-1.566,3.468-3.517,5.075-5.848
			c-1.492,0.23-2.854,0.432-4.088,0.604c-1.236,0.174-2.318,0.314-3.247,0.425c-1.076,0.181-2.055,0.323-2.931,0.427l1.692-6.229
			c2.021,0.28,3.979,0.453,5.869,0.517s3.696,0.069,5.417,0.021c1.049-1.742,2.075-3.56,3.08-5.453
			c1.005-1.893,2.016-3.734,3.033-5.525c1.016-1.791,2.027-3.503,3.039-5.136c1.01-1.633,2.04-3.085,3.093-4.36
			c-0.735-0.016-1.507-0.016-2.314,0.001c-0.811,0.018-1.678,0.082-2.606,0.192c-1.961,0.232-3.604,0.938-4.929,2.115
			c-1.325,1.177-2.251,2.518-2.778,4.018c-0.528,1.503-0.634,3.045-0.314,4.628c0.317,1.584,1.143,2.899,2.47,3.944l-5.486,4.025
			c-1.15-0.439-2.083-1.244-2.797-2.415c-0.716-1.171-1.161-2.503-1.339-4c-0.179-1.496-0.08-3.091,0.296-4.783
			c0.374-1.693,1.076-3.268,2.106-4.724c1.03-1.457,2.424-2.721,4.181-3.792c1.756-1.072,3.897-1.758,6.427-2.059
			c1.702-0.202,3.361-0.215,4.979-0.041c1.615,0.174,3.038,0.373,4.27,0.592c1.521-1.279,2.979-2.002,4.373-2.167
			c0.929-0.11,1.681-0.055,2.256,0.164c0.575,0.22,0.964,0.513,1.164,0.882c0.201,0.368,0.224,0.785,0.069,1.248
			s-0.496,0.882-1.027,1.26c-0.5,1.524-1.191,3.843-2.077,6.956c-0.887,3.115-1.75,6.643-2.59,10.588
			c-0.84,3.944-1.563,8.1-2.169,12.461c-0.608,4.363-0.885,8.528-0.832,12.499l-8.204-4.991c0.38-1.194,0.774-2.496,1.184-3.906
			c0.374-1.248,0.793-2.686,1.255-4.309c0.461-1.625,0.997-3.388,1.608-5.293c-0.82,0.149-1.63,0.272-2.429,0.367
			c-0.801,0.096-1.61,0.219-2.43,0.366c-1.153,2.178-2.319,4.252-3.498,6.223c-1.18,1.974-2.37,3.735-3.57,5.29
			c-1.203,1.555-2.413,2.813-3.635,3.768c-1.222,0.957-2.426,1.504-3.61,1.646L10.204,72.634z M39.554,39.564
			c-0.613,1.015-1.274,2.27-1.985,3.767c-0.713,1.498-1.475,3.118-2.288,4.862c-0.813,1.744-1.667,3.586-2.562,5.522
			c-0.896,1.938-1.825,3.905-2.792,5.904l4.102-0.487c1.093-3.583,2.24-7.133,3.444-10.65c1.204-3.518,2.316-6.487,3.338-8.911
			C40.501,39.608,40.081,39.606,39.554,39.564z M42.046,36.757c-0.361,0.042-0.747,0.324-1.156,0.843
			c0.425,0.055,0.663,0.078,0.715,0.072l0.378-0.124c0.297-0.139,0.46-0.315,0.486-0.528C42.495,36.809,42.355,36.72,42.046,36.757z
			"/>
		<path fill="#4686A8" d="M54.838,36.101c-1.945,6.091-3.529,11.484-4.75,16.181c-0.541,2.053-1.039,4.034-1.491,5.944
			c-0.454,1.912-0.801,3.614-1.043,5.106c-0.241,1.494-0.336,2.683-0.282,3.565c0.054,0.885,0.284,1.3,0.697,1.25
			c0.567-0.066,1.163-0.674,1.785-1.819s1.188-2.431,1.701-3.853c0.597-1.586,1.165-3.406,1.706-5.461l1.856-0.22
			c-0.783,3.546-1.685,6.741-2.708,9.582c-0.434,1.203-0.921,2.386-1.462,3.548c-0.543,1.163-1.111,2.213-1.707,3.146
			c-0.595,0.934-1.237,1.703-1.923,2.309c-0.688,0.604-1.417,0.952-2.191,1.045c-0.67,0.079-1.244-0.035-1.728-0.345
			c-0.48-0.308-0.872-0.731-1.172-1.272c-0.299-0.541-0.532-1.18-0.698-1.918c-0.167-0.74-0.266-1.474-0.301-2.201
			c-0.04-0.78,0.027-1.86,0.204-3.242c0.177-1.381,0.423-2.94,0.738-4.68c0.317-1.736,0.688-3.574,1.112-5.508
			s0.86-3.869,1.313-5.807c1.031-4.517,2.209-9.365,3.529-14.544L54.838,36.101z"/>
		<path fill="#4686A8" d="M63.475,46.063c1.496-0.178,2.597,0.386,3.3,1.688c0.705,1.303,1.103,2.996,1.192,5.077
			c0.09,2.082-0.098,4.367-0.562,6.855c-0.463,2.485-1.112,4.826-1.951,7.019c-0.838,2.192-1.81,4.049-2.91,5.563
			c-1.104,1.52-2.246,2.348-3.434,2.488c-1.136,0.135-2.049-0.07-2.74-0.617c-0.692-0.545-1.246-1.236-1.659-2.078
			c-0.087,0.586-0.192,1.135-0.314,1.646c-0.122,0.513-0.228,1.061-0.314,1.646l-5.494,0.651l9.19-40.252l6.424-0.762
			c-0.35,1.036-0.73,2.232-1.145,3.588c-0.388,1.146-0.824,2.545-1.307,4.197c-0.484,1.654-0.997,3.506-1.538,5.559
			C61.149,46.967,62.236,46.209,63.475,46.063z M58.416,66.91c0.566-0.067,1.102-0.521,1.604-1.367
			c0.501-0.844,0.965-1.893,1.393-3.146c0.427-1.254,0.767-2.576,1.021-3.967c0.253-1.391,0.413-2.689,0.479-3.902
			c0.064-1.211,0.014-2.198-0.155-2.963c-0.17-0.766-0.486-1.121-0.951-1.064c-0.671,0.08-1.3,0.73-1.887,1.95
			c-0.589,1.222-1.139,2.646-1.65,4.276c-0.514,1.631-0.96,3.268-1.341,4.907s-0.676,2.894-0.889,3.755
			c0.134,0.245,0.384,0.582,0.748,1.01C57.15,66.826,57.693,66.996,58.416,66.91z"/>
		<path fill="#4686A8" d="M88.14,52.866c-1.041,3.577-2.228,6.806-3.56,9.683c-0.588,1.223-1.204,2.419-1.85,3.596
			c-0.646,1.174-1.344,2.237-2.094,3.19c-0.75,0.952-1.533,1.739-2.35,2.358c-0.815,0.619-1.662,0.98-2.539,1.086
			c-2.271,0.27-4.027-0.215-5.272-1.454c-1.247-1.237-2.056-2.882-2.431-4.931c-0.372-2.047-0.355-4.313,0.057-6.795
			s1.128-4.83,2.146-7.043s2.285-4.104,3.801-5.669c1.513-1.565,3.226-2.463,5.134-2.689c1.135-0.135,2.035,0.178,2.701,0.936
			c0.666,0.758,1.084,1.754,1.258,2.989c0.173,1.235,0.126,2.615-0.137,4.136c-0.265,1.523-0.71,2.948-1.337,4.278
			s-1.434,2.474-2.418,3.427c-0.985,0.955-2.124,1.509-3.413,1.661c-0.517,0.061-1.027-0.061-1.535-0.367
			c0.02,1.045,0.253,1.905,0.7,2.585c0.445,0.681,1.134,0.964,2.063,0.854c1.343-0.159,2.543-0.838,3.604-2.036
			c1.061-1.198,1.978-2.522,2.746-3.976c0.905-1.625,1.707-3.473,2.401-5.543L88.14,52.866z M78.903,49.097
			c-0.414,0.049-0.814,0.306-1.203,0.771c-0.392,0.465-0.766,1.06-1.123,1.78c-0.359,0.724-0.694,1.535-1.007,2.435
			s-0.566,1.834-0.767,2.799c0.379,0.112,0.75,0.146,1.111,0.104c0.619-0.073,1.166-0.53,1.643-1.372
			c0.476-0.841,0.853-1.749,1.128-2.724c0.277-0.976,0.435-1.856,0.471-2.646C79.192,49.455,79.108,49.073,78.903,49.097z"/>
		<path fill="#4686A8" d="M106.558,50.68c-1.093,3.584-2.279,6.813-3.56,9.684c-0.536,1.216-1.114,2.408-1.732,3.58
			c-0.62,1.173-1.28,2.23-1.978,3.178c-0.699,0.945-1.404,1.725-2.117,2.331c-0.712,0.608-1.456,0.958-2.229,1.05
			c-0.672,0.08-1.247-0.034-1.729-0.345c-0.481-0.308-0.873-0.746-1.176-1.312c-0.304-0.566-0.535-1.205-0.698-1.919
			c-0.164-0.713-0.262-1.434-0.296-2.161c-0.015-0.992,0.1-2.236,0.342-3.729c0.241-1.493,0.538-3.072,0.89-4.735
			c0.353-1.664,0.73-3.316,1.139-4.962c0.404-1.644,0.79-3.141,1.152-4.492l-2.244,0.266c-0.646,2.484-1.512,5.112-2.596,7.881
			s-2.305,5.374-3.664,7.813c-1.357,2.438-2.82,4.547-4.389,6.327c-1.566,1.783-3.163,2.875-4.79,3.276l2.978-7.967
			c0.725-0.086,1.544-0.992,2.464-2.725c0.92-1.729,1.807-3.851,2.658-6.359c0.854-2.506,1.608-5.172,2.269-7.999
			c0.657-2.825,1.089-5.374,1.289-7.648l4.876-0.579c0.092,0.774-0.01,1.912-0.303,3.41l9.52-1.13c-1.514,4-2.74,7.546-3.681,10.639
			c-0.422,1.307-0.791,2.594-1.111,3.86c-0.32,1.269-0.542,2.379-0.664,3.336c-0.121,0.955-0.137,1.717-0.043,2.28
			c0.093,0.564,0.346,0.822,0.76,0.772c0.566-0.067,1.239-0.683,2.018-1.848c0.775-1.165,1.523-2.47,2.242-3.916
			c0.796-1.664,1.62-3.54,2.472-5.63L106.558,50.68z"/>
		<path fill="#4686A8" d="M109.413,60.855c0.566-0.066,1.227-0.682,1.979-1.844c0.751-1.16,1.485-2.464,2.204-3.91
			c0.751-1.605,1.552-3.453,2.402-5.542l1.856-0.221c-0.938,3.564-1.995,6.778-3.172,9.637c-0.483,1.209-1.037,2.398-1.656,3.571
			c-0.619,1.172-1.277,2.229-1.977,3.179c-0.7,0.944-1.431,1.727-2.194,2.34c-0.765,0.613-1.56,0.97-2.385,1.066
			c-0.67,0.08-1.246-0.033-1.729-0.344c-0.479-0.309-0.886-0.745-1.216-1.309c-0.327-0.562-0.572-1.199-0.735-1.914
			c-0.163-0.711-0.235-1.437-0.22-2.17c-0.039-0.781,0.031-1.836,0.214-3.164c0.183-1.33,0.423-2.836,0.719-4.521
			c0.298-1.685,0.646-3.478,1.049-5.383c0.401-1.904,0.805-3.796,1.209-5.676l-2.398,0.285l0.894-3.716l2.398-0.285
			c0.391-1.563,0.727-3.029,1.01-4.396c0.28-1.368,0.569-2.565,0.867-3.595c0.276-1.184,0.563-2.291,0.861-3.32l6.811-0.808
			c-0.297,1.029-0.637,2.143-1.017,3.338c-0.297,1.03-0.664,2.237-1.102,3.623c-0.438,1.386-0.852,2.862-1.24,4.424l3.02-0.358
			l-0.894,3.716l-3.174,0.376c-0.587,2.11-1.125,4.189-1.613,6.235c-0.491,2.045-0.863,3.868-1.117,5.469
			c-0.255,1.6-0.377,2.883-0.365,3.85C108.711,60.457,108.948,60.912,109.413,60.855z"/>
		<path fill="#4686A8" d="M136.379,47.375c-0.278,1.185-0.698,2.28-1.258,3.289c-0.471,0.895-1.161,1.786-2.075,2.679
			c-0.914,0.894-2.095,1.636-3.542,2.226c-0.448,1.519-0.995,2.972-1.643,4.354c-0.646,1.386-1.363,2.621-2.148,3.708
			c-0.787,1.087-1.624,1.971-2.511,2.651c-0.889,0.683-1.821,1.079-2.802,1.196c-1.6,0.189-2.803-0.139-3.607-0.983
			c-0.809-0.847-1.332-1.961-1.575-3.347c-0.243-1.383-0.264-2.885-0.063-4.504s0.506-3.134,0.912-4.543
			c-0.563-1.24-0.75-2.684-0.553-4.329c0.197-1.644,0.716-3.224,1.557-4.736c0.842-1.512,2.004-2.839,3.489-3.985
			c1.485-1.144,3.261-1.838,5.325-2.083c1.289-0.153,2.319,0.144,3.088,0.889c0.769,0.747,1.312,1.781,1.624,3.104
			c0.314,1.324,0.441,2.839,0.383,4.546c-0.06,1.708-0.294,3.477-0.705,5.301c0.641-0.336,1.229-0.771,1.769-1.308
			c0.538-0.535,0.979-1.109,1.325-1.727c0.447-0.628,0.833-1.354,1.153-2.177L136.379,47.375z M121.272,59.605
			c0.824-0.098,1.613-0.949,2.364-2.558c-1.188,0.142-2.293,0.091-3.315-0.155c-0.166,0.806-0.189,1.476-0.073,2.012
			C120.361,59.439,120.704,59.674,121.272,59.605z M124.923,42.771c-0.463,0.055-0.945,0.296-1.444,0.721
			c-0.498,0.426-0.945,0.95-1.343,1.572c-0.397,0.624-0.734,1.317-1.009,2.082c-0.275,0.767-0.448,1.519-0.518,2.26l2.321-0.276
			c-0.17,0.333-0.337,0.694-0.5,1.079c-0.17,0.334-0.322,0.705-0.456,1.113c-0.136,0.408-0.304,0.859-0.506,1.354
			c0.735,0.906,1.862,1.375,3.384,1.403c0.426-1.254,0.781-2.564,1.063-3.933c0.28-1.368,0.449-2.603,0.501-3.708
			c0.053-1.105-0.029-2.01-0.243-2.718C125.959,43.015,125.543,42.697,124.923,42.771z"/>
		<path fill="#4686A8" d="M154.84,55.464c1.959-0.231,3.828-1.133,5.604-2.7c1.775-1.565,3.468-3.516,5.074-5.847
			c-1.492,0.23-2.854,0.431-4.088,0.604c-1.235,0.173-2.318,0.314-3.246,0.424c-1.077,0.18-2.056,0.323-2.932,0.427l1.692-6.229
			c2.021,0.282,3.979,0.455,5.869,0.517c1.892,0.063,3.696,0.07,5.417,0.021c1.049-1.742,2.075-3.56,3.08-5.453
			s2.017-3.735,3.033-5.526s2.028-3.502,3.039-5.136c1.01-1.632,2.04-3.085,3.093-4.359c-0.734-0.016-1.507-0.016-2.313,0.001
			c-0.812,0.017-1.679,0.081-2.607,0.191c-1.961,0.233-3.604,0.938-4.928,2.116c-1.326,1.177-2.252,2.517-2.779,4.018
			c-0.528,1.502-0.634,3.045-0.313,4.628c0.316,1.584,1.142,2.899,2.47,3.945l-5.487,4.026c-1.149-0.439-2.083-1.244-2.797-2.415
			c-0.716-1.171-1.161-2.503-1.339-4c-0.178-1.496-0.08-3.091,0.296-4.783c0.374-1.693,1.076-3.268,2.107-4.724
			c1.029-1.456,2.424-2.721,4.18-3.792c1.757-1.072,3.897-1.758,6.427-2.058c1.702-0.202,3.361-0.215,4.979-0.042
			c1.614,0.175,3.039,0.373,4.269,0.592c1.522-1.28,2.98-2.002,4.373-2.167c0.929-0.11,1.681-0.055,2.256,0.164
			c0.575,0.22,0.964,0.514,1.164,0.882c0.201,0.369,0.224,0.785,0.069,1.248s-0.496,0.882-1.027,1.26
			c-0.499,1.525-1.19,3.843-2.077,6.957c-0.887,3.114-1.75,6.643-2.589,10.588c-0.841,3.945-1.563,8.1-2.17,12.46
			c-0.608,4.363-0.885,8.529-0.832,12.499l-8.204-4.99c0.38-1.195,0.774-2.498,1.185-3.908c0.374-1.246,0.793-2.684,1.255-4.307
			c0.461-1.625,0.997-3.388,1.607-5.293c-0.819,0.149-1.629,0.272-2.429,0.367c-0.8,0.095-1.61,0.218-2.429,0.366
			c-1.154,2.178-2.32,4.252-3.499,6.223c-1.18,1.974-2.37,3.734-3.57,5.289c-1.203,1.556-2.413,2.812-3.634,3.767
			c-1.221,0.959-2.425,1.506-3.611,1.646L154.84,55.464z M184.188,22.395c-0.612,1.014-1.273,2.27-1.984,3.767
			c-0.713,1.497-1.476,3.118-2.288,4.862c-0.813,1.744-1.667,3.586-2.563,5.523c-0.896,1.938-1.825,3.905-2.792,5.903l4.103-0.487
			c1.092-3.583,2.239-7.133,3.443-10.65s2.317-6.487,3.338-8.911C185.136,22.439,184.716,22.437,184.188,22.395z M186.681,19.587
			c-0.361,0.043-0.747,0.324-1.156,0.843c0.427,0.055,0.663,0.078,0.715,0.072l0.379-0.124c0.297-0.139,0.46-0.315,0.485-0.528
			C187.13,19.639,186.99,19.55,186.681,19.587z"/>
		<path fill="#4686A8" d="M207.25,28.917c-0.375,1.249-0.787,2.736-1.235,4.463c-0.45,1.729-0.896,3.599-1.336,5.613
			c-0.44,2.015-0.898,4.109-1.373,6.284c-0.475,2.175-0.927,4.31-1.358,6.4c-1.035,4.938-2.072,10.082-3.111,15.438
			c-0.316,1.293-0.711,2.386-1.181,3.279c-0.379,0.776-0.855,1.383-1.433,1.816c-0.575,0.436-1.24,0.355-1.989-0.234
			c-0.282-0.176-0.625-0.527-1.026-1.055c-0.404-0.527-0.823-1.08-1.257-1.656c-0.436-0.574-0.828-1.132-1.18-1.664
			c-0.35-0.535-0.619-0.922-0.805-1.16c0.568-0.066,1.286-1.174,2.157-3.317c0.87-2.144,1.798-4.79,2.784-7.94
			c-0.65,1.123-1.342,2.041-2.066,2.756c-0.728,0.713-1.503,1.119-2.327,1.218c-1.649,0.196-2.905-0.347-3.765-1.634
			c-0.858-1.282-1.358-2.963-1.501-5.041c-0.142-2.074,0.045-4.359,0.56-6.853c0.517-2.495,1.31-4.852,2.379-7.072
			c1.07-2.219,2.389-4.116,3.955-5.688c1.565-1.571,3.328-2.475,5.289-2.708c0.774-0.092,1.379,0.046,1.814,0.413
			c0.437,0.367,0.771,0.877,1.006,1.528c0.054-0.425,0.098-0.835,0.129-1.232c0.031-0.396,0.076-0.781,0.138-1.154L207.25,28.917z
			 M192.759,50.963c0.722-0.086,1.409-0.571,2.063-1.461c0.652-0.888,1.242-1.979,1.771-3.271c0.526-1.292,0.988-2.68,1.389-4.167
			c0.398-1.486,0.683-2.854,0.849-4.103c0.165-1.249,0.186-2.285,0.063-3.108c-0.124-0.821-0.418-1.206-0.883-1.151
			c-0.568,0.067-1.14,0.542-1.714,1.42c-0.576,0.88-1.127,1.978-1.65,3.295c-0.522,1.318-1,2.709-1.427,4.172
			c-0.429,1.463-0.736,2.834-0.925,4.113c-0.188,1.278-0.262,2.32-0.218,3.125C192.118,50.635,192.345,51.012,192.759,50.963z"/>
		<path fill="#4686A8" d="M231.614,35.834c-1.093,3.583-2.253,6.809-3.48,9.674c-0.537,1.215-1.115,2.408-1.733,3.581
			c-0.619,1.172-1.278,2.229-1.977,3.177c-0.7,0.946-1.405,1.726-2.118,2.332c-0.712,0.607-1.455,0.957-2.229,1.049
			c-1.238,0.146-2.173-0.336-2.802-1.449c-0.63-1.114-1-2.354-1.106-3.712c-0.693,1.667-1.465,3.093-2.317,4.277
			c-0.854,1.187-1.797,1.838-2.829,1.961c-0.929,0.109-1.723,0.021-2.386-0.267c-0.661-0.287-1.208-0.707-1.64-1.258
			c-0.432-0.55-0.741-1.181-0.932-1.89c-0.189-0.711-0.273-1.434-0.258-2.168c-0.039-0.78,0.008-1.701,0.145-2.763
			c0.136-1.062,0.302-2.195,0.499-3.396c0.197-1.2,0.443-2.432,0.737-3.698c0.295-1.263,0.578-2.513,0.851-3.75
			c0.654-2.851,1.454-5.823,2.395-8.917l6.888-0.817c-1.517,3.986-2.743,7.519-3.687,10.6c-0.422,1.301-0.791,2.584-1.112,3.846
			c-0.32,1.263-0.543,2.372-0.665,3.323c-0.122,0.953-0.139,1.71-0.044,2.273c0.094,0.562,0.346,0.818,0.758,0.769
			c0.466-0.055,1.055-0.815,1.771-2.281c0.715-1.466,1.438-3.206,2.167-5.22c0.728-2.016,1.423-4.091,2.086-6.229
			c0.661-2.136,1.199-3.881,1.615-5.233c0.061-0.372,0.14-0.694,0.238-0.966c0.098-0.272,0.187-0.517,0.266-0.735
			c0.079-0.218,0.135-0.409,0.168-0.57l6.811-0.808c-1.465,3.979-2.668,7.51-3.607,10.591c-0.422,1.301-0.78,2.583-1.074,3.841
			c-0.296,1.26-0.518,2.368-0.665,3.323c-0.149,0.956-0.177,1.714-0.083,2.278c0.092,0.562,0.345,0.818,0.758,0.769
			c0.567-0.067,1.24-0.679,2.02-1.836c0.777-1.157,1.525-2.454,2.246-3.89c0.798-1.651,1.623-3.516,2.476-5.591L231.614,35.834z"/>
		<path fill="#4686A8" d="M253.669,33.216c-1.093,3.583-2.278,6.812-3.56,9.683c-0.537,1.215-1.114,2.408-1.732,3.581
			c-0.62,1.172-1.267,2.229-1.938,3.173c-0.674,0.943-1.379,1.72-2.117,2.332s-1.47,0.959-2.19,1.045
			c-1.083,0.129-1.92-0.194-2.509-0.971c-0.589-0.773-1.006-1.754-1.252-2.942c-0.574,1.336-1.251,2.46-2.032,3.372
			s-1.663,1.426-2.644,1.541c-1.806,0.216-3.188-0.313-4.149-1.586c-0.962-1.271-1.553-2.94-1.772-5.008
			c-0.218-2.066-0.123-4.341,0.289-6.822c0.411-2.482,1.114-4.828,2.107-7.039c0.993-2.209,2.221-4.096,3.685-5.656
			c1.462-1.559,3.122-2.451,4.979-2.671c0.929-0.11,1.633,0.095,2.112,0.613c0.479,0.52,0.823,1.211,1.031,2.075
			c0.15-0.489,0.283-0.922,0.396-1.303c0.111-0.378,0.204-0.704,0.275-0.975c0.118-0.327,0.188-0.623,0.209-0.888l6.889-0.817
			c-1.518,3.985-2.745,7.519-3.688,10.6c-0.422,1.301-0.792,2.584-1.113,3.846c-0.319,1.263-0.542,2.372-0.664,3.323
			c-0.121,0.953-0.139,1.71-0.044,2.273c0.094,0.562,0.346,0.818,0.759,0.77c0.566-0.067,1.253-0.681,2.058-1.84
			c0.805-1.161,1.564-2.458,2.284-3.895c0.798-1.651,1.623-3.516,2.476-5.591L253.669,33.216z M235.234,45.842
			c0.566-0.067,1.14-0.538,1.717-1.413c0.574-0.876,1.101-1.967,1.572-3.273c0.474-1.305,0.871-2.681,1.197-4.125
			c0.325-1.444,0.557-2.799,0.694-4.066c0.137-1.265,0.133-2.293-0.014-3.083c-0.146-0.789-0.45-1.158-0.916-1.103
			c-0.618,0.074-1.229,0.551-1.831,1.429c-0.602,0.878-1.151,1.972-1.649,3.281c-0.5,1.31-0.925,2.688-1.275,4.134
			c-0.352,1.448-0.583,2.804-0.694,4.066c-0.111,1.263-0.081,2.288,0.091,3.075C234.297,45.55,234.666,45.909,235.234,45.842z"/>
		<path fill="#4686A8" d="M267.05,42.144c0.566-0.067,1.162-0.674,1.785-1.821c0.621-1.146,1.188-2.429,1.7-3.852
			c0.597-1.587,1.166-3.407,1.707-5.46l1.855-0.221c-0.783,3.547-1.686,6.742-2.708,9.582c-0.433,1.203-0.921,2.385-1.462,3.549
			c-0.543,1.163-1.111,2.211-1.706,3.145c-0.596,0.934-1.237,1.705-1.924,2.308c-0.688,0.605-1.417,0.953-2.19,1.045
			c-1.032,0.123-1.843-0.199-2.431-0.967c-0.588-0.766-1.001-1.711-1.239-2.834c-0.581,1.272-1.264,2.361-2.045,3.264
			c-0.783,0.905-1.664,1.414-2.644,1.53c-1.548,0.184-2.776-0.362-3.688-1.642c-0.909-1.277-1.5-2.947-1.771-5.008
			c-0.271-2.06-0.227-4.329,0.134-6.803c0.361-2.476,0.986-4.813,1.876-7.012c0.889-2.197,2.053-4.076,3.49-5.633
			c1.436-1.556,3.135-2.453,5.097-2.686c0.773-0.092,1.391,0.045,1.853,0.409c0.463,0.364,0.809,0.845,1.036,1.446
			c0.41-1.827,0.807-3.561,1.188-5.203c0.381-1.641,0.732-3.081,1.057-4.324c0.401-1.46,0.766-2.811,1.089-4.054l6.811-0.808
			c-1.945,6.091-3.529,11.484-4.75,16.181c-0.541,2.053-1.039,4.035-1.491,5.945c-0.454,1.912-0.801,3.615-1.042,5.106
			c-0.242,1.494-0.337,2.683-0.283,3.565C266.404,41.777,266.636,42.193,267.05,42.144z M257.299,43.301
			c0.464-0.055,0.945-0.516,1.443-1.388c0.497-0.87,0.971-1.959,1.418-3.268c0.444-1.309,0.844-2.691,1.194-4.145
			s0.595-2.817,0.73-4.089c0.136-1.271,0.17-2.308,0.102-3.111c-0.068-0.802-0.285-1.183-0.646-1.14
			c-0.619,0.074-1.242,0.554-1.87,1.438c-0.627,0.887-1.19,1.986-1.688,3.3c-0.499,1.315-0.908,2.698-1.232,4.149
			c-0.326,1.451-0.543,2.811-0.654,4.081c-0.111,1.269-0.08,2.298,0.092,3.088C256.361,43.008,256.73,43.369,257.299,43.301z"/>
		<path fill="#4686A8" d="M292.543,28.837c-0.278,1.185-0.697,2.28-1.257,3.289c-0.471,0.894-1.161,1.786-2.076,2.679
			c-0.914,0.893-2.095,1.635-3.542,2.225c-0.447,1.519-0.994,2.971-1.642,4.355c-0.646,1.384-1.363,2.621-2.148,3.708
			c-0.787,1.087-1.624,1.972-2.511,2.652c-0.889,0.682-1.822,1.08-2.802,1.196c-1.6,0.19-2.803-0.138-3.608-0.983
			c-0.808-0.847-1.331-1.961-1.574-3.346c-0.243-1.383-0.264-2.885-0.064-4.504c0.2-1.619,0.506-3.133,0.913-4.542
			c-0.564-1.24-0.75-2.684-0.553-4.33c0.196-1.644,0.716-3.224,1.556-4.736c0.843-1.512,2.006-2.839,3.49-3.985
			c1.485-1.143,3.261-1.838,5.325-2.083c1.289-0.153,2.318,0.145,3.087,0.889c0.77,0.746,1.312,1.781,1.625,3.103
			c0.313,1.324,0.441,2.839,0.383,4.546c-0.06,1.708-0.294,3.476-0.705,5.302c0.641-0.336,1.229-0.773,1.769-1.308
			c0.537-0.535,0.979-1.109,1.325-1.727c0.446-0.628,0.832-1.354,1.153-2.178L292.543,28.837z M277.437,41.068
			c0.825-0.098,1.613-0.95,2.365-2.558c-1.188,0.141-2.293,0.09-3.315-0.155c-0.166,0.805-0.19,1.475-0.074,2.01
			C276.526,40.901,276.868,41.136,277.437,41.068z M281.089,24.232c-0.465,0.055-0.946,0.296-1.445,0.721
			c-0.499,0.426-0.946,0.95-1.344,1.572c-0.396,0.624-0.733,1.316-1.009,2.082c-0.275,0.767-0.447,1.518-0.518,2.259l2.322-0.275
			c-0.17,0.333-0.337,0.694-0.5,1.079c-0.17,0.334-0.322,0.705-0.457,1.113c-0.135,0.409-0.303,0.86-0.506,1.355
			c0.736,0.907,1.863,1.376,3.385,1.404c0.426-1.254,0.78-2.565,1.063-3.933c0.28-1.368,0.447-2.604,0.501-3.708
			c0.052-1.105-0.029-2.01-0.243-2.718C282.124,24.477,281.708,24.159,281.089,24.232z"/>
	</g>
	
		<text transform="matrix(1 0 0 1 129.5432 89.0293)" display="none" fill="#4686A8" enable-background="new    " font-family="'Monthelo-Regular'" font-size="37.7093">Blog</text>
</g>
<g id="Capa_1_copia">
	<g>
		<path fill="#FFFFFF" d="M9.851,69.654c1.96-0.232,3.829-1.133,5.604-2.699s3.468-3.518,5.074-5.848
			c-1.491,0.229-2.854,0.431-4.088,0.603c-1.235,0.174-2.317,0.313-3.247,0.425c-1.075,0.182-2.055,0.322-2.931,0.428l1.693-6.229
			c2.021,0.282,3.978,0.455,5.869,0.519c1.891,0.062,3.695,0.068,5.417,0.021c1.049-1.742,2.074-3.56,3.079-5.454
			c1.006-1.892,2.017-3.735,3.033-5.525c1.017-1.791,2.028-3.503,3.039-5.136c1.01-1.633,2.04-3.085,3.093-4.36
			c-0.734-0.016-1.507-0.016-2.313,0.001c-0.812,0.018-1.678,0.082-2.607,0.192c-1.961,0.232-3.604,0.938-4.929,2.115
			c-1.325,1.177-2.251,2.518-2.778,4.018c-0.527,1.503-0.634,3.045-0.313,4.628c0.316,1.584,1.142,2.899,2.469,3.945l-5.486,4.024
			c-1.149-0.438-2.083-1.243-2.797-2.413c-0.716-1.171-1.161-2.503-1.339-4c-0.178-1.496-0.08-3.091,0.296-4.783
			c0.374-1.693,1.076-3.268,2.107-4.724c1.03-1.457,2.424-2.721,4.18-3.792c1.756-1.072,3.898-1.758,6.427-2.059
			c1.702-0.202,3.361-0.215,4.979-0.041c1.615,0.174,3.038,0.373,4.269,0.592c1.522-1.279,2.98-2.002,4.373-2.167
			c0.93-0.11,1.682-0.055,2.256,0.164c0.575,0.22,0.965,0.513,1.164,0.882c0.201,0.368,0.225,0.785,0.069,1.248
			c-0.154,0.463-0.496,0.882-1.027,1.26c-0.5,1.524-1.19,3.843-2.076,6.956c-0.888,3.115-1.75,6.643-2.591,10.588
			c-0.84,3.943-1.563,8.1-2.169,12.461c-0.607,4.361-0.885,8.527-0.832,12.498L28.612,73c0.381-1.195,0.774-2.498,1.185-3.908
			c0.374-1.246,0.793-2.684,1.255-4.308c0.46-1.624,0.997-3.388,1.608-5.292c-0.82,0.148-1.631,0.271-2.43,0.367
			c-0.801,0.095-1.609,0.218-2.429,0.365c-1.154,2.178-2.32,4.252-3.499,6.224c-1.179,1.973-2.37,3.733-3.57,5.288
			c-1.203,1.557-2.413,2.813-3.635,3.768c-1.221,0.958-2.425,1.505-3.61,1.646L9.851,69.654z M39.2,36.585
			c-0.613,1.015-1.274,2.27-1.985,3.767c-0.713,1.498-1.475,3.118-2.288,4.862c-0.813,1.744-1.667,3.586-2.562,5.522
			c-0.896,1.938-1.825,3.904-2.793,5.904l4.103-0.488c1.092-3.582,2.24-7.131,3.444-10.648c1.203-3.517,2.315-6.487,3.338-8.911
			C40.147,36.629,39.728,36.627,39.2,36.585z M41.692,33.778c-0.36,0.042-0.747,0.324-1.155,0.843
			c0.425,0.055,0.663,0.078,0.715,0.072l0.378-0.124c0.297-0.139,0.46-0.315,0.486-0.528C42.142,33.83,42.002,33.741,41.692,33.778z
			"/>
		<path fill="#FFFFFF" d="M54.484,33.122c-1.944,6.091-3.528,11.484-4.75,16.181c-0.541,2.052-1.039,4.035-1.49,5.945
			c-0.454,1.912-0.802,3.615-1.043,5.105c-0.241,1.496-0.337,2.684-0.282,3.565c0.053,0.886,0.284,1.302,0.696,1.252
			c0.567-0.067,1.163-0.674,1.785-1.821c0.622-1.146,1.189-2.429,1.701-3.851c0.597-1.588,1.165-3.407,1.706-5.461l1.857-0.222
			c-0.783,3.548-1.686,6.742-2.708,9.582c-0.435,1.203-0.921,2.386-1.462,3.55c-0.543,1.163-1.111,2.211-1.707,3.146
			c-0.596,0.934-1.237,1.704-1.924,2.309c-0.688,0.604-1.417,0.953-2.19,1.045c-0.67,0.08-1.245-0.034-1.729-0.346
			c-0.479-0.308-0.872-0.731-1.172-1.271c-0.299-0.54-0.531-1.18-0.697-1.919c-0.167-0.738-0.267-1.472-0.302-2.2
			c-0.04-0.779,0.028-1.859,0.204-3.242c0.177-1.381,0.423-2.939,0.739-4.679c0.317-1.737,0.688-3.574,1.112-5.508
			c0.424-1.935,0.859-3.869,1.313-5.807c1.032-4.517,2.209-9.366,3.53-14.545L54.484,33.122z"/>
		<path fill="#FFFFFF" d="M63.121,43.083c1.496-0.178,2.597,0.386,3.3,1.688c0.705,1.303,1.102,2.996,1.191,5.077
			c0.091,2.082-0.098,4.367-0.561,6.855c-0.463,2.486-1.113,4.828-1.952,7.02c-0.838,2.193-1.809,4.049-2.91,5.564
			c-1.103,1.52-2.246,2.347-3.433,2.486c-1.136,0.136-2.049-0.069-2.741-0.616c-0.691-0.546-1.246-1.237-1.659-2.078
			c-0.087,0.587-0.191,1.135-0.313,1.646c-0.122,0.512-0.229,1.062-0.315,1.646l-5.494,0.65l9.191-40.25l6.423-0.762
			c-0.349,1.036-0.729,2.232-1.144,3.588c-0.389,1.146-0.824,2.545-1.308,4.197c-0.483,1.654-0.997,3.506-1.538,5.559
			C60.796,43.988,61.883,43.23,63.121,43.083z M58.063,63.932c0.567-0.066,1.103-0.522,1.604-1.367
			c0.501-0.844,0.965-1.893,1.392-3.146s0.768-2.575,1.021-3.967c0.253-1.391,0.413-2.69,0.479-3.902
			c0.065-1.211,0.014-2.198-0.155-2.963c-0.17-0.765-0.485-1.12-0.95-1.064c-0.671,0.08-1.301,0.73-1.888,1.951
			c-0.589,1.222-1.138,2.646-1.649,4.276c-0.515,1.631-0.96,3.267-1.341,4.907c-0.382,1.642-0.677,2.894-0.89,3.755
			c0.134,0.246,0.384,0.582,0.748,1.01C56.797,63.848,57.34,64.018,58.063,63.932z"/>
		<path fill="#FFFFFF" d="M87.786,49.887c-1.041,3.577-2.229,6.804-3.561,9.681c-0.588,1.223-1.204,2.42-1.849,3.596
			c-0.646,1.176-1.344,2.238-2.094,3.191c-0.75,0.951-1.533,1.738-2.351,2.357c-0.814,0.62-1.662,0.982-2.539,1.087
			c-2.271,0.271-4.026-0.215-5.271-1.454c-1.247-1.238-2.057-2.882-2.432-4.931c-0.372-2.048-0.354-4.313,0.058-6.794
			c0.412-2.482,1.128-4.83,2.146-7.044c1.02-2.212,2.285-4.104,3.801-5.67c1.514-1.565,3.227-2.463,5.135-2.689
			c1.135-0.135,2.034,0.178,2.7,0.936c0.666,0.758,1.084,1.754,1.259,2.989c0.173,1.235,0.126,2.615-0.138,4.137
			c-0.265,1.523-0.71,2.949-1.337,4.279s-1.433,2.474-2.418,3.426c-0.984,0.955-2.124,1.509-3.413,1.66
			c-0.516,0.063-1.026-0.061-1.535-0.365c0.021,1.044,0.254,1.904,0.7,2.585c0.446,0.68,1.135,0.964,2.063,0.854
			c1.342-0.159,2.543-0.838,3.604-2.036c1.062-1.197,1.979-2.522,2.746-3.976c0.906-1.625,1.707-3.472,2.402-5.543L87.786,49.887z
			 M78.55,46.118c-0.414,0.049-0.815,0.306-1.204,0.771c-0.391,0.465-0.765,1.06-1.123,1.781c-0.359,0.724-0.694,1.535-1.006,2.436
			c-0.313,0.899-0.567,1.832-0.767,2.797c0.379,0.113,0.75,0.147,1.11,0.104c0.619-0.073,1.166-0.53,1.644-1.372
			c0.475-0.842,0.852-1.749,1.128-2.724c0.276-0.975,0.434-1.856,0.471-2.646C78.839,46.476,78.755,46.094,78.55,46.118z"/>
		<path fill="#FFFFFF" d="M106.204,47.701c-1.094,3.583-2.279,6.813-3.561,9.683c-0.536,1.216-1.114,2.407-1.731,3.58
			c-0.62,1.173-1.28,2.231-1.979,3.179c-0.699,0.945-1.404,1.724-2.117,2.33c-0.712,0.608-1.456,0.959-2.229,1.051
			c-0.672,0.078-1.247-0.035-1.729-0.346c-0.48-0.308-0.873-0.746-1.176-1.313c-0.303-0.564-0.535-1.204-0.698-1.918
			c-0.164-0.713-0.262-1.434-0.296-2.162c-0.014-0.991,0.101-2.235,0.343-3.729c0.24-1.492,0.537-3.072,0.89-4.736
			c0.352-1.662,0.729-3.316,1.138-4.96c0.405-1.644,0.79-3.141,1.153-4.492l-2.244,0.266c-0.647,2.484-1.512,5.111-2.596,7.882
			c-1.084,2.771-2.306,5.375-3.664,7.812c-1.358,2.438-2.821,4.547-4.39,6.329c-1.565,1.781-3.163,2.875-4.79,3.275l2.979-7.966
			c0.724-0.086,1.544-0.993,2.463-2.726c0.92-1.729,1.807-3.852,2.659-6.358c0.853-2.506,1.607-5.174,2.268-7.999
			c0.657-2.825,1.089-5.374,1.289-7.648l4.876-0.579c0.092,0.774-0.009,1.912-0.302,3.41l9.519-1.13
			c-1.514,4-2.739,7.546-3.681,10.639c-0.421,1.306-0.791,2.594-1.111,3.86c-0.319,1.268-0.542,2.379-0.664,3.336
			c-0.12,0.955-0.137,1.717-0.043,2.279c0.094,0.565,0.347,0.822,0.761,0.773c0.565-0.067,1.238-0.684,2.017-1.85
			c0.776-1.164,1.524-2.469,2.243-3.914c0.795-1.664,1.62-3.541,2.471-5.63L106.204,47.701z"/>
		<path fill="#FFFFFF" d="M109.06,57.878c0.567-0.067,1.228-0.683,1.979-1.844c0.751-1.161,1.484-2.466,2.204-3.911
			c0.751-1.605,1.552-3.453,2.401-5.543l1.857-0.221c-0.938,3.565-1.995,6.778-3.172,9.637c-0.484,1.209-1.037,2.398-1.656,3.57
			c-0.62,1.174-1.278,2.231-1.978,3.179c-0.699,0.946-1.431,1.728-2.193,2.341c-0.766,0.613-1.561,0.971-2.385,1.066
			c-0.671,0.08-1.246-0.034-1.729-0.344c-0.479-0.309-0.885-0.744-1.215-1.309c-0.328-0.563-0.573-1.199-0.736-1.913
			c-0.163-0.713-0.234-1.437-0.219-2.171c-0.04-0.78,0.031-1.835,0.213-3.165c0.184-1.329,0.423-2.836,0.719-4.521
			c0.299-1.684,0.646-3.477,1.05-5.381c0.4-1.904,0.805-3.796,1.209-5.676l-2.398,0.285l0.893-3.716l2.399-0.285
			c0.39-1.563,0.726-3.029,1.009-4.396c0.281-1.368,0.57-2.565,0.867-3.595c0.277-1.184,0.564-2.291,0.862-3.32l6.81-0.808
			c-0.297,1.029-0.636,2.143-1.016,3.338c-0.297,1.03-0.664,2.237-1.103,3.623c-0.437,1.386-0.851,2.862-1.239,4.424l3.019-0.358
			l-0.893,3.716l-3.175,0.376c-0.587,2.11-1.125,4.189-1.612,6.235c-0.491,2.046-0.863,3.869-1.117,5.468
			c-0.255,1.601-0.377,2.885-0.366,3.851C108.357,57.479,108.595,57.934,109.06,57.878z"/>
		<path fill="#FFFFFF" d="M136.025,44.396c-0.277,1.185-0.697,2.28-1.258,3.289c-0.47,0.894-1.161,1.786-2.075,2.679
			c-0.914,0.893-2.095,1.635-3.542,2.225c-0.447,1.519-0.995,2.972-1.642,4.354c-0.647,1.385-1.364,2.621-2.149,3.707
			c-0.787,1.089-1.624,1.973-2.511,2.652c-0.888,0.682-1.821,1.08-2.801,1.196c-1.601,0.188-2.803-0.14-3.608-0.983
			c-0.808-0.847-1.332-1.961-1.575-3.347c-0.242-1.383-0.264-2.884-0.063-4.504c0.2-1.618,0.505-3.133,0.912-4.542
			c-0.564-1.24-0.75-2.684-0.553-4.33c0.196-1.644,0.716-3.224,1.557-4.736c0.841-1.512,2.003-2.839,3.489-3.985
			c1.484-1.144,3.261-1.838,5.324-2.083c1.289-0.153,2.319,0.144,3.089,0.889c0.768,0.747,1.311,1.781,1.624,3.104
			c0.313,1.324,0.44,2.839,0.383,4.546c-0.061,1.708-0.294,3.476-0.705,5.302c0.64-0.336,1.229-0.773,1.768-1.308
			c0.538-0.535,0.979-1.109,1.325-1.727c0.448-0.628,0.833-1.354,1.154-2.177L136.025,44.396z M120.919,56.627
			c0.824-0.098,1.613-0.949,2.364-2.557c-1.188,0.141-2.293,0.09-3.315-0.155c-0.166,0.806-0.19,1.476-0.074,2.01
			C120.008,56.46,120.351,56.693,120.919,56.627z M124.569,39.792c-0.463,0.055-0.944,0.296-1.443,0.721
			c-0.498,0.426-0.946,0.95-1.343,1.572c-0.397,0.624-0.734,1.317-1.01,2.082c-0.274,0.767-0.447,1.519-0.517,2.26l2.321-0.276
			c-0.17,0.333-0.337,0.694-0.5,1.079c-0.17,0.334-0.322,0.705-0.456,1.113c-0.137,0.409-0.305,0.86-0.506,1.355
			c0.734,0.907,1.861,1.375,3.384,1.403c0.426-1.253,0.78-2.564,1.063-3.934c0.281-1.368,0.449-2.603,0.501-3.708
			c0.054-1.105-0.028-2.01-0.243-2.718C125.605,40.036,125.189,39.718,124.569,39.792z"/>
		<path fill="#FFFFFF" d="M154.486,52.484c1.959-0.232,3.828-1.133,5.604-2.699c1.774-1.567,3.467-3.516,5.074-5.848
			c-1.492,0.23-2.854,0.431-4.088,0.604c-1.235,0.173-2.318,0.314-3.246,0.424c-1.077,0.18-2.057,0.323-2.933,0.427l1.693-6.229
			c2.021,0.282,3.978,0.455,5.869,0.517c1.891,0.063,3.695,0.07,5.417,0.021c1.049-1.742,2.075-3.56,3.08-5.453
			s2.016-3.735,3.032-5.526c1.018-1.791,2.028-3.502,3.039-5.136c1.011-1.632,2.04-3.085,3.094-4.359
			c-0.735-0.016-1.508-0.016-2.314,0.001c-0.811,0.017-1.678,0.081-2.606,0.191c-1.961,0.233-3.604,0.938-4.929,2.116
			c-1.326,1.177-2.252,2.517-2.778,4.018c-0.528,1.502-0.635,3.045-0.314,4.628c0.317,1.584,1.142,2.899,2.47,3.945l-5.486,4.026
			c-1.15-0.439-2.083-1.244-2.797-2.415c-0.717-1.171-1.161-2.503-1.34-4c-0.178-1.496-0.08-3.091,0.297-4.783
			c0.373-1.693,1.075-3.268,2.106-4.724c1.03-1.456,2.424-2.721,4.18-3.792c1.758-1.072,3.898-1.758,6.428-2.058
			c1.701-0.202,3.36-0.215,4.979-0.042c1.615,0.175,3.039,0.373,4.27,0.592c1.521-1.28,2.979-2.002,4.373-2.167
			c0.929-0.11,1.681-0.055,2.256,0.164c0.574,0.22,0.964,0.514,1.164,0.882c0.2,0.369,0.224,0.785,0.068,1.248
			c-0.153,0.463-0.496,0.882-1.026,1.26c-0.499,1.525-1.191,3.843-2.077,6.957c-0.887,3.114-1.75,6.643-2.589,10.588
			c-0.842,3.945-1.563,8.1-2.17,12.461c-0.608,4.362-0.886,8.528-0.832,12.497l-8.204-4.989c0.38-1.195,0.773-2.498,1.184-3.908
			c0.374-1.247,0.793-2.683,1.255-4.307c0.461-1.625,0.997-3.387,1.608-5.292c-0.82,0.149-1.629,0.272-2.429,0.367
			c-0.801,0.095-1.61,0.218-2.43,0.366c-1.153,2.178-2.319,4.252-3.499,6.223c-1.179,1.972-2.37,3.734-3.569,5.291
			c-1.203,1.555-2.413,2.812-3.635,3.767c-1.221,0.957-2.425,1.504-3.61,1.646L154.486,52.484z M183.835,19.416
			c-0.613,1.014-1.274,2.27-1.985,3.767c-0.713,1.497-1.475,3.118-2.288,4.862c-0.813,1.744-1.667,3.586-2.562,5.523
			c-0.896,1.938-1.825,3.905-2.792,5.903l4.102-0.487c1.092-3.583,2.24-7.133,3.444-10.65s2.316-6.487,3.338-8.911
			C184.782,19.46,184.362,19.458,183.835,19.416z M186.327,16.608c-0.361,0.043-0.747,0.324-1.156,0.843
			c0.426,0.055,0.663,0.078,0.715,0.072l0.378-0.124c0.297-0.139,0.46-0.315,0.486-0.528
			C186.776,16.66,186.637,16.571,186.327,16.608z"/>
		<path fill="#FFFFFF" d="M206.896,25.938c-0.375,1.249-0.787,2.736-1.234,4.463c-0.45,1.729-0.896,3.599-1.336,5.613
			c-0.44,2.015-0.898,4.109-1.373,6.284c-0.476,2.175-0.928,4.31-1.358,6.4c-1.036,4.937-2.073,10.081-3.112,15.437
			c-0.315,1.295-0.711,2.387-1.18,3.279c-0.379,0.777-0.856,1.383-1.433,1.818c-0.575,0.435-1.24,0.354-1.989-0.234
			c-0.283-0.178-0.625-0.527-1.027-1.057c-0.403-0.527-0.823-1.08-1.257-1.654c-0.435-0.576-0.828-1.133-1.179-1.665
			c-0.351-0.534-0.619-0.922-0.806-1.16c0.568-0.067,1.286-1.174,2.157-3.317c0.87-2.143,1.798-4.789,2.784-7.941
			c-0.65,1.125-1.341,2.042-2.066,2.756c-0.727,0.715-1.503,1.121-2.326,1.219c-1.65,0.196-2.905-0.348-3.766-1.633
			c-0.857-1.284-1.357-2.964-1.501-5.041c-0.141-2.075,0.045-4.361,0.561-6.854c0.516-2.495,1.309-4.852,2.379-7.072
			c1.069-2.219,2.388-4.116,3.955-5.688c1.564-1.571,3.328-2.475,5.289-2.708c0.773-0.092,1.379,0.046,1.813,0.413
			c0.438,0.367,0.772,0.877,1.006,1.528c0.055-0.425,0.099-0.835,0.129-1.232c0.031-0.396,0.076-0.781,0.139-1.154L206.896,25.938z
			 M192.405,47.984c0.723-0.086,1.409-0.571,2.063-1.461c0.652-0.888,1.242-1.979,1.77-3.271c0.526-1.292,0.988-2.68,1.39-4.167
			c0.397-1.486,0.682-2.854,0.848-4.103c0.165-1.249,0.187-2.285,0.063-3.108c-0.124-0.821-0.418-1.206-0.884-1.151
			c-0.567,0.067-1.14,0.542-1.714,1.42c-0.575,0.88-1.127,1.978-1.649,3.295c-0.523,1.318-1,2.709-1.427,4.172
			c-0.43,1.463-0.736,2.834-0.926,4.113c-0.188,1.278-0.262,2.32-0.218,3.125C191.765,47.656,191.991,48.033,192.405,47.984z"/>
		<path fill="#FFFFFF" d="M231.261,32.855c-1.093,3.583-2.253,6.809-3.481,9.674c-0.536,1.215-1.114,2.408-1.732,3.581
			c-0.619,1.172-1.279,2.231-1.978,3.177c-0.699,0.946-1.404,1.724-2.117,2.331c-0.713,0.606-1.455,0.957-2.229,1.049
			c-1.238,0.147-2.172-0.336-2.801-1.45c-0.63-1.114-1-2.353-1.107-3.712c-0.692,1.667-1.465,3.093-2.316,4.277
			c-0.854,1.185-1.797,1.838-2.829,1.96c-0.929,0.109-1.724,0.021-2.386-0.268c-0.661-0.285-1.208-0.705-1.641-1.257
			c-0.431-0.55-0.741-1.18-0.931-1.89c-0.189-0.709-0.274-1.432-0.258-2.167c-0.039-0.78,0.008-1.701,0.144-2.764
			s0.302-2.195,0.499-3.396c0.198-1.2,0.444-2.432,0.738-3.698c0.295-1.263,0.578-2.513,0.85-3.75
			c0.655-2.851,1.454-5.823,2.396-8.917l6.888-0.817c-1.517,3.986-2.744,7.519-3.687,10.6c-0.423,1.301-0.791,2.584-1.112,3.846
			c-0.321,1.263-0.543,2.372-0.665,3.323c-0.122,0.953-0.139,1.71-0.044,2.273c0.093,0.562,0.345,0.818,0.758,0.769
			c0.465-0.055,1.054-0.815,1.77-2.281c0.716-1.466,1.438-3.206,2.167-5.22c0.729-2.016,1.424-4.091,2.087-6.229
			c0.66-2.136,1.198-3.881,1.614-5.233c0.062-0.372,0.141-0.694,0.238-0.966s0.188-0.517,0.266-0.735
			c0.079-0.218,0.136-0.409,0.168-0.57l6.812-0.808c-1.465,3.979-2.668,7.51-3.608,10.591c-0.422,1.301-0.779,2.583-1.073,3.841
			c-0.297,1.26-0.519,2.368-0.665,3.323c-0.149,0.956-0.178,1.714-0.083,2.278c0.092,0.562,0.345,0.818,0.758,0.769
			c0.566-0.067,1.24-0.679,2.019-1.836c0.778-1.157,1.526-2.454,2.246-3.89c0.798-1.651,1.623-3.516,2.477-5.591L231.261,32.855z"/>
		<path fill="#FFFFFF" d="M253.315,30.237c-1.093,3.583-2.277,6.812-3.559,9.683c-0.537,1.215-1.115,2.408-1.733,3.581
			c-0.62,1.172-1.266,2.229-1.938,3.173c-0.674,0.943-1.379,1.721-2.117,2.331c-0.739,0.611-1.47,0.959-2.191,1.045
			c-1.083,0.129-1.92-0.194-2.509-0.97c-0.589-0.774-1.006-1.755-1.252-2.943c-0.574,1.336-1.251,2.46-2.032,3.372
			c-0.78,0.912-1.663,1.427-2.643,1.542c-1.806,0.215-3.188-0.313-4.15-1.587c-0.962-1.271-1.553-2.94-1.771-5.008
			c-0.218-2.066-0.123-4.341,0.289-6.822c0.411-2.482,1.113-4.828,2.106-7.039c0.993-2.209,2.222-4.096,3.686-5.656
			c1.462-1.559,3.122-2.451,4.979-2.671c0.93-0.11,1.633,0.095,2.113,0.613c0.479,0.52,0.823,1.211,1.031,2.075
			c0.149-0.489,0.282-0.922,0.395-1.303c0.112-0.378,0.204-0.704,0.276-0.975c0.118-0.327,0.188-0.623,0.209-0.888l6.888-0.817
			c-1.517,3.985-2.745,7.519-3.687,10.6c-0.422,1.301-0.792,2.584-1.113,3.846c-0.32,1.263-0.542,2.372-0.664,3.323
			c-0.122,0.953-0.139,1.71-0.044,2.273c0.093,0.562,0.345,0.818,0.758,0.77c0.567-0.067,1.253-0.681,2.059-1.84
			c0.805-1.161,1.563-2.458,2.283-3.895c0.798-1.651,1.623-3.516,2.477-5.591L253.315,30.237z M234.881,42.863
			c0.565-0.067,1.139-0.538,1.716-1.413c0.575-0.876,1.101-1.967,1.573-3.273c0.473-1.305,0.871-2.681,1.197-4.125
			c0.324-1.444,0.557-2.799,0.693-4.066c0.137-1.265,0.133-2.293-0.013-3.083c-0.146-0.789-0.451-1.158-0.916-1.103
			c-0.619,0.074-1.229,0.551-1.831,1.429s-1.152,1.972-1.65,3.281c-0.5,1.31-0.925,2.688-1.274,4.134
			c-0.353,1.448-0.583,2.804-0.695,4.066c-0.111,1.263-0.081,2.288,0.091,3.075C233.943,42.571,234.313,42.93,234.881,42.863z"/>
		<path fill="#FFFFFF" d="M266.696,39.165c0.566-0.067,1.162-0.674,1.785-1.821c0.621-1.146,1.189-2.429,1.7-3.852
			c0.597-1.587,1.166-3.407,1.707-5.46l1.856-0.221c-0.783,3.547-1.687,6.742-2.708,9.582c-0.434,1.203-0.921,2.385-1.462,3.549
			c-0.544,1.163-1.111,2.211-1.706,3.145c-0.597,0.934-1.237,1.705-1.925,2.308c-0.687,0.605-1.417,0.953-2.189,1.045
			c-1.033,0.123-1.843-0.199-2.432-0.967c-0.588-0.766-1.001-1.711-1.238-2.834c-0.581,1.272-1.265,2.361-2.045,3.264
			c-0.783,0.905-1.664,1.414-2.645,1.53c-1.548,0.184-2.775-0.363-3.688-1.643c-0.909-1.277-1.5-2.947-1.771-5.008
			c-0.271-2.06-0.226-4.329,0.134-6.803c0.361-2.476,0.986-4.813,1.876-7.012c0.89-2.197,2.054-4.076,3.49-5.633
			c1.437-1.556,3.135-2.453,5.098-2.686c0.772-0.092,1.391,0.045,1.853,0.409c0.462,0.364,0.808,0.845,1.036,1.446
			c0.41-1.827,0.806-3.561,1.187-5.203c0.382-1.641,0.733-3.081,1.058-4.324c0.4-1.46,0.765-2.811,1.089-4.054l6.81-0.808
			c-1.944,6.091-3.528,11.484-4.75,16.181c-0.541,2.053-1.039,4.035-1.49,5.945c-0.454,1.912-0.802,3.615-1.042,5.106
			c-0.242,1.494-0.338,2.683-0.283,3.565C266.051,38.798,266.282,39.214,266.696,39.165z M256.945,40.322
			c0.465-0.055,0.945-0.516,1.443-1.388c0.498-0.87,0.971-1.959,1.418-3.268c0.445-1.309,0.844-2.691,1.195-4.145
			c0.35-1.454,0.594-2.817,0.729-4.089c0.137-1.271,0.17-2.308,0.103-3.111c-0.069-0.802-0.285-1.183-0.646-1.14
			c-0.619,0.074-1.242,0.554-1.87,1.438c-0.627,0.887-1.189,1.986-1.688,3.3c-0.499,1.315-0.909,2.698-1.233,4.149
			c-0.326,1.451-0.543,2.811-0.653,4.081c-0.111,1.269-0.08,2.298,0.092,3.088C256.008,40.029,256.377,40.39,256.945,40.322z"/>
		<path fill="#FFFFFF" d="M292.189,25.858c-0.277,1.185-0.696,2.28-1.257,3.289c-0.47,0.894-1.161,1.786-2.076,2.679
			c-0.914,0.893-2.095,1.635-3.542,2.225c-0.446,1.519-0.994,2.971-1.641,4.355c-0.647,1.384-1.364,2.621-2.149,3.708
			c-0.787,1.087-1.624,1.972-2.511,2.652c-0.888,0.682-1.822,1.08-2.801,1.196c-1.601,0.19-2.803-0.138-3.609-0.983
			c-0.807-0.847-1.331-1.961-1.574-3.346c-0.242-1.383-0.264-2.885-0.063-4.504s0.505-3.133,0.913-4.542
			c-0.565-1.24-0.75-2.684-0.553-4.33c0.195-1.644,0.716-3.224,1.556-4.736c0.842-1.512,2.005-2.839,3.49-3.985
			c1.484-1.143,3.261-1.838,5.324-2.083c1.289-0.153,2.318,0.145,3.088,0.889c0.769,0.746,1.311,1.781,1.625,3.103
			c0.313,1.324,0.44,2.839,0.383,4.546c-0.061,1.708-0.294,3.476-0.705,5.302c0.64-0.336,1.229-0.773,1.768-1.308
			c0.537-0.535,0.979-1.109,1.325-1.727c0.447-0.628,0.832-1.354,1.154-2.178L292.189,25.858z M277.083,38.089
			c0.825-0.098,1.612-0.95,2.364-2.558c-1.188,0.141-2.293,0.09-3.314-0.155c-0.166,0.805-0.191,1.475-0.075,2.01
			C276.173,37.922,276.515,38.157,277.083,38.089z M280.735,21.253c-0.465,0.055-0.945,0.296-1.444,0.721
			c-0.499,0.426-0.946,0.95-1.345,1.572c-0.396,0.624-0.732,1.316-1.009,2.082c-0.274,0.767-0.447,1.518-0.517,2.259l2.322-0.275
			c-0.171,0.333-0.338,0.694-0.5,1.079c-0.171,0.334-0.322,0.705-0.457,1.113c-0.136,0.409-0.304,0.86-0.507,1.355
			c0.736,0.907,1.863,1.376,3.386,1.404c0.426-1.254,0.779-2.565,1.063-3.933c0.281-1.368,0.448-2.604,0.501-3.708
			c0.052-1.105-0.029-2.01-0.243-2.718C281.771,21.498,281.354,21.18,280.735,21.253z"/>
	</g>
	
		<text transform="matrix(1 0 0 1 129.5432 86.0293)" display="none" fill="#FFFFFF" enable-background="new    " font-family="'Monthelo-Regular'" font-size="37.7093">Blog</text>
</g>
</svg>
