<?xml version="1.0" encoding="utf-8"?>
<!-- Generator: Adobe Illustrator 16.0.0, SVG Export Plug-In . SVG Version: 6.00 Build 0)  -->
<!DOCTYPE svg PUBLIC "-//W3C//DTD SVG 1.1//EN" "http://www.w3.org/Graphics/SVG/1.1/DTD/svg11.dtd">
<svg version="1.1" id="Capa_1" xmlns="http://www.w3.org/2000/svg" xmlns:xlink="http://www.w3.org/1999/xlink" x="0px" y="0px"
	 width="100px" height="100px" viewBox="0 0 100 100" enable-background="new 0 0 100 100" xml:space="preserve">
<g>
	<path fill="#010202" d="M31.448,91.255c37.735,0,58.376-31.264,58.376-58.376c0-0.888,0-1.772-0.061-2.652
		c4.016-2.904,7.482-6.5,10.236-10.62c-3.744,1.659-7.717,2.747-11.784,3.228c4.282-2.563,7.489-6.598,9.021-11.348
		c-4.027,2.39-8.434,4.074-13.028,4.98C80.328,12.342,74.91,10,69.248,10c-11.266,0-20.536,9.27-20.536,20.536
		c0,1.563,0.178,3.121,0.532,4.644C32.756,34.353,17.373,26.554,6.96,13.743c-5.415,9.321-2.613,21.401,6.352,27.388
		C10.047,41.034,6.853,40.153,4,38.563v0.26c0.003,9.729,6.923,18.186,16.46,20.113c-3.021,0.823-6.19,0.943-9.264,0.352
		c2.681,8.337,10.412,14.084,19.168,14.248c-7.264,5.709-16.242,8.809-25.48,8.8C3.251,82.332,1.621,82.232,0,82.039
		c9.382,6.021,20.301,9.215,31.448,9.199"/>
</g>
</svg>
