<?xml version="1.0" encoding="utf-8"?>
<!-- Generator: Adobe Illustrator 16.0.0, SVG Export Plug-In . SVG Version: 6.00 Build 0)  -->
<!DOCTYPE svg PUBLIC "-//W3C//DTD SVG 1.1//EN" "http://www.w3.org/Graphics/SVG/1.1/DTD/svg11.dtd">
<svg version="1.1" id="Capa_1" xmlns="http://www.w3.org/2000/svg" xmlns:xlink="http://www.w3.org/1999/xlink" x="0px" y="0px"
	 width="100px" height="100px" viewBox="0 0 100 100" enable-background="new 0 0 100 100" xml:space="preserve">
<g>
	<path fill="#010202" d="M3.338,31.445l3.79,4.97c0,0,7.819-6.162,10.424-3.081c2.606,3.081,12.55,40.272,15.872,47.136
		c2.899,6.018,10.894,13.978,19.66,8.292c8.763-5.684,37.899-30.559,43.114-59.931c5.211-29.366-35.063-23.218-39.324,2.37
		c10.658-6.403,16.35,2.602,10.895,12.791c-5.447,10.183-10.423,16.822-13.027,16.822c-2.601,0-4.604-6.811-7.583-18.72
		c-3.082-12.314-3.06-34.491-15.869-31.978C19.209,12.487,3.338,31.445,3.338,31.445z"/>
</g>
</svg>
